<svg width="86" height="77" viewBox="0 0 86 77" fill="none" xmlns="http://www.w3.org/2000/svg">
<g clip-path="url(#clip0_18_321)">
<path d="M64.4999 19.25H57.3333C57.3333 12.1596 50.9191 6.41669 42.9999 6.41669C35.0808 6.41669 28.6666 12.1596 28.6666 19.25H21.4999C17.5583 19.25 14.3333 22.1375 14.3333 25.6667V64.1667C14.3333 67.6959 17.5583 70.5834 21.4999 70.5834H64.4999C68.4416 70.5834 71.6666 67.6959 71.6666 64.1667V25.6667C71.6666 22.1375 68.4416 19.25 64.4999 19.25ZM35.8333 32.0834C35.8333 33.8479 34.2208 35.2917 32.2499 35.2917C30.2791 35.2917 28.6666 33.8479 28.6666 32.0834V25.6667H35.8333V32.0834ZM42.9999 12.8334C46.9416 12.8334 50.1666 15.7209 50.1666 19.25H35.8333C35.8333 15.7209 39.0583 12.8334 42.9999 12.8334ZM57.3333 32.0834C57.3333 33.8479 55.7208 35.2917 53.7499 35.2917C51.7791 35.2917 50.1666 33.8479 50.1666 32.0834V25.6667H57.3333V32.0834Z" fill="black"/>
</g>
<defs>
<clipPath id="clip0_18_321">
<rect width="86" height="77" fill="white"/>
</clipPath>
</defs>
</svg>
